<?xml version="1.0" encoding="iso-8859-1"?>
<!-- Generator: Adobe Illustrator 16.0.0, SVG Export Plug-In . SVG Version: 6.00 Build 0)  -->
<!DOCTYPE svg PUBLIC "-//W3C//DTD SVG 1.1//EN" "http://www.w3.org/Graphics/SVG/1.1/DTD/svg11.dtd">
<svg version="1.1" id="Capa_1" xmlns="http://www.w3.org/2000/svg" xmlns:xlink="http://www.w3.org/1999/xlink" x="0px" y="0px"
	 width="611.995px" height="611.996px" viewBox="0 0 611.995 611.996" style="enable-background:new 0 0 611.995 611.996;"
	 xml:space="preserve">
<g>
	<g id="House_1_">
		<g>
			<path d="M267.743,267.759h7.839l-7.839-7.838V267.759z M305.522,0.093c0.152,0,0.306,0.076,0.497,0.076
				c0.152,0,0.306-0.076,0.459-0.076H305.522z M344.219,267.759v-7.838l-7.839,7.838H344.219z M589.86,261.412L349.419,20.971
				C337.222,8.735,321.85,2.158,305.981,0.169c-15.831,1.989-31.202,8.565-43.4,20.802L22.14,261.412
				c-29.52,29.52-29.52,77.355,0,106.875l14.187,14.187h40.227v152.952c0,42.253,34.224,76.476,76.477,76.476h305.904
				c42.253,0,76.476-34.223,76.476-76.476V382.474h40.227l14.187-14.187C619.38,338.767,619.38,290.932,589.86,261.412z
				 M458.934,305.998v191.19c0,21.107-17.131,38.238-38.238,38.238h-38.238V382.474h7.839l-7.839-7.839v-30.399H229.505v30.399
				l-7.839,7.839h7.839v152.952h-38.238c-21.107,0-38.237-17.131-38.237-38.238v-191.19H92.957c1.567-6.5,4.244-12.771,9.33-17.857
				L289.31,101.118c4.779-4.78,10.63-7.418,16.672-9.101c6.079,1.682,11.93,4.321,16.71,9.101L509.713,288.14
				c5.086,5.086,7.763,11.357,9.33,17.857H458.934z"/>
		</g>
	</g>
</g>
<g>
</g>
<g>
</g>
<g>
</g>
<g>
</g>
<g>
</g>
<g>
</g>
<g>
</g>
<g>
</g>
<g>
</g>
<g>
</g>
<g>
</g>
<g>
</g>
<g>
</g>
<g>
</g>
<g>
</g>
</svg>
